<svg version="1.1" id="Layer_1" xmlns="http://www.w3.org/2000/svg" xmlns:xlink="http://www.w3.org/1999/xlink" x="0px" y="0px"
	 width="100%" viewBox="0 0 1370 366" enable-background="new 0 0 1370 366" xml:space="preserve">
<path fill="#FFFFFF" opacity="1.000000" stroke="none" 
	d="
M899.000000,367.000000 
	C599.333374,367.000000 300.166718,367.000000 1.000040,367.000000 
	C1.000027,245.000031 1.000027,123.000053 1.000013,1.000057 
	C457.666626,1.000038 914.333252,1.000038 1371.000000,1.000019 
	C1371.000000,122.999939 1371.000000,244.999878 1371.000000,366.999908 
	C1213.833374,367.000000 1056.666626,367.000000 899.000000,367.000000 
M1039.336304,112.271271 
	C1039.336304,112.271271 1038.979736,111.983421 1039.001099,111.189621 
	C1039.330444,110.103127 1039.809082,109.037163 1039.961670,107.926392 
	C1040.478882,104.160172 1040.880737,100.378105 1041.326782,96.602089 
	C1037.539551,97.074814 1033.573608,96.984261 1029.996460,98.119141 
	C1015.562500,102.698463 1001.248535,107.655830 985.403748,112.972404 
	C987.811157,117.616386 990.121765,121.611122 991.963257,125.811554 
	C992.956055,128.076019 994.219116,131.050995 993.536072,133.096161 
	C984.181091,161.106689 974.521729,189.015732 964.868530,216.926010 
	C964.409241,218.253937 963.550415,219.663101 962.469177,220.517181 
	C958.527039,223.630814 954.411316,226.524719 950.193481,229.624573 
	C947.704285,225.069839 943.633423,221.944916 945.858582,215.633789 
	C958.349670,180.206467 970.420471,144.630569 982.533264,109.070847 
	C983.913940,105.017609 984.662292,100.748985 986.009338,95.357437 
	C981.162231,96.103790 977.681580,96.196136 974.492554,97.207878 
	C961.019836,101.482216 947.636475,106.037849 934.214905,110.474075 
	C929.656555,111.980774 928.526489,114.581627 930.851929,118.862984 
	C932.191772,121.329956 933.733459,123.706650 935.379272,125.983032 
	C937.281799,128.614532 937.417847,131.032608 936.271362,134.199799 
	C930.682556,149.638763 924.738953,165.004471 920.308777,180.785690 
	C917.891785,189.395401 913.180725,195.142868 906.272949,199.866211 
	C905.178772,200.614410 904.192627,201.525681 903.076721,202.236099 
	C894.041260,207.987991 885.077515,213.864288 875.848450,219.288498 
	C874.315552,220.189423 870.589966,219.881378 869.662292,218.713928 
	C868.178406,216.846436 868.020264,213.815674 867.651306,211.226852 
	C867.507019,210.214569 868.308594,209.067886 868.677979,207.981964 
	C880.517883,173.180084 892.383423,138.386841 904.139099,103.556549 
	C904.922058,101.236732 904.871277,98.635498 905.312134,95.403458 
	C901.050049,96.072716 897.698547,96.172081 894.629578,97.154137 
	C880.695190,101.612961 866.815002,106.247452 852.998047,111.056511 
	C851.676147,111.516617 849.839050,113.926323 850.112671,114.910828 
	C851.009338,118.137291 852.403992,121.372635 854.287415,124.141914 
	C856.900391,127.983917 857.367615,131.383011 855.760437,135.966965 
	C846.478210,162.441315 837.469055,189.013596 828.633179,215.640915 
	C825.845886,224.040573 830.504089,235.524323 837.688232,240.665573 
	C845.689331,246.391479 854.692322,245.835358 863.462219,244.385788 
	C875.693237,242.364105 886.173157,235.923691 896.384460,229.199722 
	C899.062988,227.435928 901.675171,225.571335 905.168518,223.167648 
	C903.771729,228.925919 902.651245,233.545212 901.436462,238.553268 
	C903.495789,238.784546 904.451355,238.966309 905.410522,238.988464 
	C920.534485,239.337860 935.657532,239.817139 950.783630,239.961060 
	C968.446045,240.129120 986.111389,240.028839 1003.775269,239.984100 
	C1009.618347,239.969315 1011.290527,236.786270 1008.189575,231.673737 
	C1006.565308,228.995819 1004.534546,226.538147 1003.149719,223.751221 
	C1002.328613,222.098663 1001.655273,219.745804 1002.195557,218.138031 
	C1009.982239,194.966827 1017.956238,171.858246 1025.993408,148.772247 
	C1026.666016,146.840195 1027.740601,144.730194 1029.261841,143.463699 
	C1038.428467,135.832001 1047.779907,128.422256 1057.343018,120.717941 
	C1061.798218,127.410973 1066.354736,133.661514 1070.239624,140.304932 
	C1072.771362,144.634201 1075.635620,147.079147 1080.776978,145.455246 
	C1080.980713,165.755035 1086.603882,167.706009 1098.964844,175.105759 
	C1108.891968,181.048645 1118.813721,187.001144 1128.690308,193.027344 
	C1133.960571,196.243057 1135.701538,199.975784 1134.063599,204.298141 
	C1129.572510,216.148651 1120.582031,223.183060 1108.885376,226.829544 
	C1102.104004,228.943649 1097.332153,226.710083 1093.294189,220.656616 
	C1087.504639,211.977234 1081.913940,203.157898 1075.856201,194.671021 
	C1074.737549,193.103516 1071.847290,192.354401 1069.696045,192.176254 
	C1068.756958,192.098480 1067.163330,194.245483 1066.645630,195.665939 
	C1062.992432,205.687912 1059.468506,215.759125 1056.070679,225.870865 
	C1055.038330,228.943283 1054.426636,232.172394 1053.815063,235.366638 
	C1053.203857,238.558105 1054.921875,239.738220 1057.942383,240.042007 
	C1063.504883,240.601471 1069.065674,241.272034 1074.583130,242.167664 
	C1088.377686,244.406906 1102.224609,245.116104 1116.052368,242.991470 
	C1144.137451,238.676285 1165.697388,218.599152 1171.659424,190.915298 
	C1173.562744,182.076981 1170.337036,167.214722 1159.304077,161.282928 
	C1146.959961,154.646133 1135.376587,146.587204 1123.514404,139.064728 
	C1118.925415,136.154510 1117.902222,132.942780 1120.061890,128.092041 
	C1124.206299,118.783714 1131.786499,113.414146 1141.365723,111.101494 
	C1150.275269,108.950539 1155.809692,111.952103 1159.385742,118.238770 
	C1164.360474,126.984268 1170.095947,135.318512 1175.895264,143.554459 
	C1176.983398,145.099670 1179.862671,145.835571 1181.987793,145.997711 
	C1182.969971,146.072662 1184.576294,144.046692 1185.122681,142.665863 
	C1187.112305,137.637360 1188.781494,132.481720 1190.557251,127.369034 
	C1192.551514,121.626518 1194.602173,115.902176 1196.496582,110.126717 
	C1198.665405,103.514748 1197.689941,101.990952 1191.254272,99.856621 
	C1175.665649,94.686806 1159.639404,93.763237 1143.356445,93.897110 
	C1125.851929,94.041031 1111.228027,100.436089 1098.931885,112.511887 
	C1095.101929,116.273216 1091.795898,120.567932 1087.967407,124.941315 
	C1089.699951,115.030121 1095.775269,106.539040 1095.350708,96.508469 
	C1077.012451,92.861534 1067.305054,95.672287 1058.728271,100.151398 
	C1052.034912,103.646866 1045.996582,108.396126 1039.336304,112.271271 
M478.331848,120.877831 
	C487.000824,95.640366 495.691650,70.410339 504.291473,45.149326 
	C504.890167,43.390678 504.812775,41.401871 505.168152,38.579945 
	C501.322327,39.038700 498.172424,39.005157 495.268372,39.833500 
	C484.201141,42.990250 473.307159,46.788090 462.172882,49.667545 
	C446.891754,53.619434 446.937775,54.061123 455.539490,67.344963 
	C456.678314,69.103699 457.390656,72.043900 456.756500,73.913086 
	C440.623810,121.463356 424.301971,168.949554 407.913544,216.412537 
	C407.320465,218.130142 405.973480,219.816544 404.538879,220.972855 
	C399.630951,224.928650 394.393250,228.483658 389.593262,232.558960 
	C388.417023,233.557587 387.889648,236.024017 388.105011,237.680237 
	C388.224121,238.596069 390.496368,239.884720 391.806427,239.894653 
	C410.635712,240.037354 429.466461,240.002609 448.296783,239.978134 
	C451.415863,239.974075 453.226227,238.256882 452.246155,235.255600 
	C451.249084,232.202286 449.930786,228.935944 447.805481,226.640167 
	C444.211731,222.758209 444.591431,219.003922 446.192535,214.597397 
	C449.964691,204.215912 453.516815,193.754471 457.455353,182.473526 
	C466.222778,195.739868 474.413818,208.134064 482.789764,220.808060 
	C478.015747,224.408920 473.675873,228.029846 468.972778,231.093094 
	C466.350128,232.801270 464.688751,234.945801 465.978699,237.511871 
	C466.690063,238.927078 469.652313,239.879837 471.609528,239.896439 
	C491.604980,240.065918 511.602509,240.028091 531.599182,239.958206 
	C533.667480,239.950974 535.733826,239.361633 539.184753,238.828735 
	C537.566711,235.176422 536.641968,232.094986 534.976746,229.486130 
	C520.735046,207.173843 506.359192,184.947220 491.972961,162.616608 
	C492.983551,161.698730 493.781189,160.839142 494.707275,160.152878 
	C518.694885,142.377167 542.666992,124.580055 566.737122,106.916588 
	C569.277588,105.052277 571.309937,102.898438 569.789612,100.137199 
	C569.025146,98.748695 565.887451,98.114578 563.811462,98.089500 
	C549.649048,97.918373 535.483398,97.960083 521.319397,98.043930 
	C519.258606,98.056129 517.201355,98.659378 513.461731,99.258324 
	C516.443787,105.091469 518.950562,109.994904 521.530640,115.041786 
	C503.553467,128.431030 485.631195,141.779343 466.514435,156.017303 
	C470.679352,143.629150 474.378174,132.627274 478.331848,120.877831 
M84.820816,119.245918 
	C86.504623,121.900978 88.478638,124.424194 89.766518,127.259125 
	C90.576073,129.041138 91.089066,131.540421 90.491226,133.293793 
	C76.781807,173.500931 62.916275,213.654907 48.996185,253.789795 
	C48.440834,255.390976 47.330635,257.036865 46.021019,258.095306 
	C41.902950,261.423584 37.692486,264.673401 33.271801,267.579346 
	C30.058319,269.691742 28.702763,272.046387 30.207958,275.778442 
	C51.428036,275.778442 72.537155,275.778442 93.568130,275.778442 
	C95.477234,270.362366 91.291672,267.403229 89.264366,263.619232 
	C88.051834,261.356018 85.723152,258.568451 86.255165,256.681793 
	C88.960777,247.086929 92.437088,237.709381 95.582970,228.434265 
	C99.604256,231.182907 102.937019,234.426208 106.928490,236.024277 
	C125.462357,243.444702 143.945984,242.084991 160.521103,231.426361 
	C197.274628,207.791977 216.550674,174.088257 214.828705,129.770355 
	C214.453827,120.122307 210.637085,111.096046 203.537628,104.002342 
	C192.446045,92.919724 178.356888,93.820145 164.762131,95.728378 
	C155.692627,97.001411 147.004410,100.990852 138.623077,103.615082 
	C140.038254,96.634865 138.583282,94.319557 132.561020,96.244324 
	C116.328659,101.432343 100.215584,106.993591 83.818268,112.486069 
	C84.010269,114.672264 84.182472,116.632996 84.820816,119.245918 
M637.016052,49.401161 
	C603.867188,68.265984 580.241638,95.532768 565.835327,130.733612 
	C556.600586,153.297913 550.920776,176.529617 556.038391,201.091141 
	C561.285095,226.272217 574.530396,242.751938 601.248474,245.701492 
	C623.215088,248.126495 645.062134,245.460648 665.455688,235.782074 
	C666.880798,235.105728 668.203613,233.348557 668.741638,231.804016 
	C673.329773,218.632401 677.762207,205.405899 682.137085,192.161423 
	C682.770447,190.244003 682.850647,188.143906 683.149963,186.349136 
	C677.471924,184.212738 674.132996,187.268066 670.461731,189.886795 
	C655.800415,200.344910 641.155640,210.837601 626.198608,220.860718 
	C623.063416,222.961716 618.580444,224.165878 614.804504,223.985306 
	C603.930237,223.465256 597.636292,216.639709 593.968323,206.862320 
	C588.915283,193.392838 589.578735,179.650421 592.518616,166.021973 
	C599.007385,135.942795 611.329956,108.580879 631.877869,85.320396 
	C641.553955,74.366951 652.620544,65.334381 667.157898,61.621967 
	C679.605103,58.443325 688.392822,60.805275 694.987305,72.081215 
	C698.893005,78.759583 703.724182,84.892517 707.736206,91.514847 
	C709.417908,94.290611 711.680420,94.467232 713.957214,93.868408 
	C715.228149,93.534126 716.534424,91.741806 717.036499,90.326790 
	C721.476013,77.815514 725.754639,65.246956 730.046936,52.683735 
	C732.148621,46.532299 731.565918,45.507053 725.588989,44.050968 
	C711.097717,40.520630 696.484070,38.805439 681.486877,38.803310 
	C665.916199,38.801098 651.551392,42.504623 637.016052,49.401161 
M833.652771,178.057602 
	C839.815979,162.850494 843.165955,147.221375 839.975525,130.811005 
	C836.839050,114.678108 827.988647,103.004486 811.949951,98.056946 
	C794.742065,92.748726 777.188110,93.478539 760.147278,98.413979 
	C718.754822,110.402237 681.909607,155.608765 686.164856,203.832642 
	C687.486511,218.810577 694.400940,231.279114 708.600525,238.376007 
	C724.347046,246.246078 741.362366,246.047745 757.593506,242.516663 
	C793.625854,234.677872 818.155334,212.007141 833.652771,178.057602 
M1261.341797,96.815765 
	C1255.237915,99.080727 1248.760376,100.657242 1243.096069,103.731987 
	C1220.670166,115.905304 1204.418579,134.036880 1193.950684,157.232758 
	C1185.969849,174.918045 1181.407104,193.260620 1186.043457,212.749893 
	C1189.644775,227.888077 1197.730835,239.475571 1213.635132,243.317444 
	C1219.787964,244.803741 1226.369873,244.844971 1232.765015,244.937012 
	C1255.608032,245.265823 1275.687866,237.779129 1293.045288,222.941986 
	C1297.526123,219.111694 1297.234131,214.668716 1292.050293,208.429413 
	C1289.554199,205.425186 1285.468994,205.541840 1281.681641,208.920364 
	C1273.254883,216.437531 1263.555664,221.753632 1252.666382,224.394516 
	C1233.269165,229.098755 1219.187622,218.456070 1220.273071,198.893890 
	C1220.809326,189.232666 1223.850708,179.710464 1225.783325,170.000458 
	C1228.528931,170.000458 1230.345947,170.000458 1232.162842,170.000458 
	C1260.156372,170.000458 1288.150269,169.942001 1316.143188,170.081085 
	C1319.317871,170.096863 1321.023926,169.130753 1321.999512,166.200958 
	C1325.941650,154.361252 1328.661011,142.419418 1326.014404,129.843353 
	C1322.586670,113.555878 1313.739990,101.920341 1297.411743,97.033012 
	C1285.752686,93.543205 1273.874146,94.566475 1261.341797,96.815765 
M332.824951,223.955643 
	C325.954590,221.426529 320.900696,216.833328 320.056824,209.480667 
	C319.297760,202.867020 319.143585,195.966934 320.142090,189.409348 
	C323.110016,169.917572 329.724915,151.669022 341.460693,135.616119 
	C348.087189,126.551956 355.782776,118.565704 366.836670,114.817383 
	C376.552032,111.522964 387.261597,113.383057 392.273041,123.424820 
	C395.720764,130.333267 400.713257,136.474976 405.063507,142.926910 
	C407.032440,145.847061 412.760376,146.387466 413.744568,143.585815 
	C418.323029,130.552673 422.718658,117.451508 426.907867,104.288155 
	C427.920502,101.106209 426.422607,99.273552 422.604950,98.887169 
	C414.923920,98.109779 407.336121,96.177933 399.651062,95.728668 
	C388.563324,95.080482 377.281952,94.146690 366.337036,95.456169 
	C347.660248,97.690697 332.200653,107.376785 318.910492,120.373405 
	C294.266815,144.472733 279.306763,172.722504 283.104614,208.325562 
	C284.436157,220.808197 290.241119,231.264801 300.815094,238.601227 
	C313.892395,247.674515 328.885803,246.954865 343.463226,245.593765 
	C357.626190,244.271378 370.041718,237.321396 381.958984,229.704132 
	C385.280304,227.581238 385.793915,224.915070 384.947144,221.744232 
	C382.450317,212.395050 377.668427,210.643448 369.750671,215.963257 
	C367.828247,217.254898 365.970154,218.680481 363.928009,219.749237 
	C354.351990,224.760696 344.428619,227.607208 332.824951,223.955643 
M245.046402,206.529510 
	C256.760315,172.255234 268.511261,137.993439 280.099396,103.676697 
	C280.821167,101.539268 280.265930,98.970642 280.304840,96.602631 
	C277.925110,96.681923 275.389801,96.252617 273.191589,96.925179 
	C261.241577,100.581360 249.357391,104.456604 237.483780,108.357552 
	C223.670532,112.895737 221.199570,111.347816 231.026306,126.909363 
	C232.282883,128.899261 232.625320,132.325531 231.878738,134.587067 
	C225.120972,155.057693 217.393539,175.228516 211.240250,195.871704 
	C206.716309,211.048691 200.843201,224.480347 186.030014,232.286224 
	C184.732315,232.970078 184.009430,235.852615 184.127686,237.640610 
	C184.185410,238.513260 186.791275,239.883804 188.253189,239.895966 
	C206.743408,240.049835 225.235382,239.975677 243.726807,240.013794 
	C247.776703,240.022141 249.085205,237.923401 248.217682,234.312515 
	C247.847427,232.771423 247.135132,231.084702 246.051865,229.980682 
	C240.221008,224.038254 239.792969,217.615646 243.793808,210.573517 
	C244.353241,209.588837 244.575027,208.412323 245.046402,206.529510 
M256.839722,63.581593 
	C255.908875,66.022575 254.655930,68.393883 254.109955,70.918106 
	C252.697128,77.450089 256.705322,84.750854 262.530975,85.814835 
	C277.736450,88.591942 294.189423,78.984047 292.053497,61.811222 
	C291.501068,57.369713 288.002167,52.654579 283.560425,52.114670 
	C272.828705,50.810188 263.445038,53.102848 256.839722,63.581593 
z"/>
<path fill="#FF0101" opacity="1.000000" stroke="none" 
	d="
M1039.667114,112.588219 
	C1045.996582,108.396126 1052.034912,103.646866 1058.728271,100.151398 
	C1067.305054,95.672287 1077.012451,92.861534 1095.350708,96.508469 
	C1095.775269,106.539040 1089.699951,115.030121 1087.967407,124.941315 
	C1091.795898,120.567932 1095.101929,116.273216 1098.931885,112.511887 
	C1111.228027,100.436089 1125.851929,94.041031 1143.356445,93.897110 
	C1159.639404,93.763237 1175.665649,94.686806 1191.254272,99.856621 
	C1197.689941,101.990952 1198.665405,103.514748 1196.496582,110.126717 
	C1194.602173,115.902176 1192.551514,121.626518 1190.557251,127.369034 
	C1188.781494,132.481720 1187.112305,137.637360 1185.122681,142.665863 
	C1184.576294,144.046692 1182.969971,146.072662 1181.987793,145.997711 
	C1179.862671,145.835571 1176.983398,145.099670 1175.895264,143.554459 
	C1170.095947,135.318512 1164.360474,126.984268 1159.385742,118.238770 
	C1155.809692,111.952103 1150.275269,108.950539 1141.365723,111.101494 
	C1131.786499,113.414146 1124.206299,118.783714 1120.061890,128.092041 
	C1117.902222,132.942780 1118.925415,136.154510 1123.514404,139.064728 
	C1135.376587,146.587204 1146.959961,154.646133 1159.304077,161.282928 
	C1170.337036,167.214722 1173.562744,182.076981 1171.659424,190.915298 
	C1165.697388,218.599152 1144.137451,238.676285 1116.052368,242.991470 
	C1102.224609,245.116104 1088.377686,244.406906 1074.583130,242.167664 
	C1069.065674,241.272034 1063.504883,240.601471 1057.942383,240.042007 
	C1054.921875,239.738220 1053.203857,238.558105 1053.815063,235.366638 
	C1054.426636,232.172394 1055.038330,228.943283 1056.070679,225.870865 
	C1059.468506,215.759125 1062.992432,205.687912 1066.645630,195.665939 
	C1067.163330,194.245483 1068.756958,192.098480 1069.696045,192.176254 
	C1071.847290,192.354401 1074.737549,193.103516 1075.856201,194.671021 
	C1081.913940,203.157898 1087.504639,211.977234 1093.294189,220.656616 
	C1097.332153,226.710083 1102.104004,228.943649 1108.885376,226.829544 
	C1120.582031,223.183060 1129.572510,216.148651 1134.063599,204.298141 
	C1135.701538,199.975784 1133.960571,196.243057 1128.690308,193.027344 
	C1118.813721,187.001144 1108.891968,181.048645 1098.964844,175.105759 
	C1086.603882,167.706009 1080.980713,165.755035 1080.776978,145.455246 
	C1075.635620,147.079147 1072.771362,144.634201 1070.239624,140.304932 
	C1066.354736,133.661514 1061.798218,127.410973 1057.343018,120.717941 
	C1047.779907,128.422256 1038.428467,135.832001 1029.261841,143.463699 
	C1027.740601,144.730194 1026.666016,146.840195 1025.993408,148.772247 
	C1017.956238,171.858246 1009.982239,194.966827 1002.195557,218.138031 
	C1001.655273,219.745804 1002.328613,222.098663 1003.149719,223.751221 
	C1004.534546,226.538147 1006.565308,228.995819 1008.189575,231.673737 
	C1011.290527,236.786270 1009.618347,239.969315 1003.775269,239.984100 
	C986.111389,240.028839 968.446045,240.129120 950.783630,239.961060 
	C935.657532,239.817139 920.534485,239.337860 905.410522,238.988464 
	C904.451355,238.966309 903.495789,238.784546 901.436462,238.553268 
	C902.651245,233.545212 903.771729,228.925919 905.168518,223.167648 
	C901.675171,225.571335 899.062988,227.435928 896.384460,229.199722 
	C886.173157,235.923691 875.693237,242.364105 863.462219,244.385788 
	C854.692322,245.835358 845.689331,246.391479 837.688232,240.665573 
	C830.504089,235.524323 825.845886,224.040573 828.633179,215.640915 
	C837.469055,189.013596 846.478210,162.441315 855.760437,135.966965 
	C857.367615,131.383011 856.900391,127.983917 854.287415,124.141914 
	C852.403992,121.372635 851.009338,118.137291 850.112671,114.910828 
	C849.839050,113.926323 851.676147,111.516617 852.998047,111.056511 
	C866.815002,106.247452 880.695190,101.612961 894.629578,97.154137 
	C897.698547,96.172081 901.050049,96.072716 905.312134,95.403458 
	C904.871277,98.635498 904.922058,101.236732 904.139099,103.556549 
	C892.383423,138.386841 880.517883,173.180084 868.677979,207.981964 
	C868.308594,209.067886 867.507019,210.214569 867.651306,211.226852 
	C868.020264,213.815674 868.178406,216.846436 869.662292,218.713928 
	C870.589966,219.881378 874.315552,220.189423 875.848450,219.288498 
	C885.077515,213.864288 894.041260,207.987991 903.076721,202.236099 
	C904.192627,201.525681 905.178772,200.614410 906.272949,199.866211 
	C913.180725,195.142868 917.891785,189.395401 920.308777,180.785690 
	C924.738953,165.004471 930.682556,149.638763 936.271362,134.199799 
	C937.417847,131.032608 937.281799,128.614532 935.379272,125.983032 
	C933.733459,123.706650 932.191772,121.329956 930.851929,118.862984 
	C928.526489,114.581627 929.656555,111.980774 934.214905,110.474075 
	C947.636475,106.037849 961.019836,101.482216 974.492554,97.207878 
	C977.681580,96.196136 981.162231,96.103790 986.009338,95.357437 
	C984.662292,100.748985 983.913940,105.017609 982.533264,109.070847 
	C970.420471,144.630569 958.349670,180.206467 945.858582,215.633789 
	C943.633423,221.944916 947.704285,225.069839 950.193481,229.624573 
	C954.411316,226.524719 958.527039,223.630814 962.469177,220.517181 
	C963.550415,219.663101 964.409241,218.253937 964.868530,216.926010 
	C974.521729,189.015732 984.181091,161.106689 993.536072,133.096161 
	C994.219116,131.050995 992.956055,128.076019 991.963257,125.811554 
	C990.121765,121.611122 987.811157,117.616386 985.403748,112.972404 
	C1001.248535,107.655830 1015.562500,102.698463 1029.996460,98.119141 
	C1033.573608,96.984261 1037.539551,97.074814 1041.326660,96.602089 
	C1040.880737,100.378105 1040.478882,104.160172 1039.961670,107.926392 
	C1039.809082,109.037163 1039.330444,110.103127 1038.726562,111.681030 
	C1038.408081,112.600609 1038.364258,113.028786 1038.320435,113.456978 
	C1038.769287,113.167397 1039.218262,112.877808 1039.667114,112.588219 
z"/>
<path fill="#3057B9" opacity="1.000000" stroke="none" 
	d="
M478.204437,121.251610 
	C474.378174,132.627274 470.679352,143.629150 466.514435,156.017303 
	C485.631195,141.779343 503.553467,128.431030 521.530640,115.041786 
	C518.950562,109.994904 516.443787,105.091469 513.461731,99.258324 
	C517.201355,98.659378 519.258606,98.056129 521.319397,98.043930 
	C535.483398,97.960083 549.649048,97.918373 563.811462,98.089500 
	C565.887451,98.114578 569.025146,98.748695 569.789612,100.137199 
	C571.309937,102.898438 569.277588,105.052277 566.737122,106.916588 
	C542.666992,124.580055 518.694885,142.377167 494.707275,160.152878 
	C493.781189,160.839142 492.983551,161.698730 491.972961,162.616608 
	C506.359192,184.947220 520.735046,207.173843 534.976746,229.486130 
	C536.641968,232.094986 537.566711,235.176422 539.184753,238.828735 
	C535.733826,239.361633 533.667480,239.950974 531.599182,239.958206 
	C511.602509,240.028091 491.604980,240.065918 471.609528,239.896439 
	C469.652313,239.879837 466.690063,238.927078 465.978699,237.511871 
	C464.688751,234.945801 466.350128,232.801270 468.972778,231.093094 
	C473.675873,228.029846 478.015747,224.408920 482.789764,220.808060 
	C474.413818,208.134064 466.222778,195.739868 457.455353,182.473526 
	C453.516815,193.754471 449.964691,204.215912 446.192535,214.597397 
	C444.591431,219.003922 444.211731,222.758209 447.805481,226.640167 
	C449.930786,228.935944 451.249084,232.202286 452.246155,235.255600 
	C453.226227,238.256882 451.415863,239.974075 448.296783,239.978134 
	C429.466461,240.002609 410.635712,240.037354 391.806427,239.894653 
	C390.496368,239.884720 388.224121,238.596069 388.105011,237.680237 
	C387.889648,236.024017 388.417023,233.557587 389.593262,232.558960 
	C394.393250,228.483658 399.630951,224.928650 404.538879,220.972855 
	C405.973480,219.816544 407.320465,218.130142 407.913544,216.412537 
	C424.301971,168.949554 440.623810,121.463356 456.756500,73.913086 
	C457.390656,72.043900 456.678314,69.103699 455.539490,67.344963 
	C446.937775,54.061123 446.891754,53.619434 462.172882,49.667545 
	C473.307159,46.788090 484.201141,42.990250 495.268372,39.833500 
	C498.172424,39.005157 501.322327,39.038700 505.168152,38.579945 
	C504.812775,41.401871 504.890167,43.390678 504.291473,45.149326 
	C495.691650,70.410339 487.000824,95.640366 478.204437,121.251610 
z"/>
<path fill="#3057B9" opacity="1.000000" stroke="none" 
	d="
M84.587746,118.919830 
	C84.182472,116.632996 84.010269,114.672264 83.818268,112.486069 
	C100.215584,106.993591 116.328659,101.432343 132.561020,96.244324 
	C138.583282,94.319557 140.038254,96.634865 138.623077,103.615082 
	C147.004410,100.990852 155.692627,97.001411 164.762131,95.728378 
	C178.356888,93.820145 192.446045,92.919724 203.537628,104.002342 
	C210.637085,111.096046 214.453827,120.122307 214.828705,129.770355 
	C216.550674,174.088257 197.274628,207.791977 160.521103,231.426361 
	C143.945984,242.084991 125.462357,243.444702 106.928490,236.024277 
	C102.937019,234.426208 99.604256,231.182907 95.582970,228.434265 
	C92.437088,237.709381 88.960777,247.086929 86.255165,256.681793 
	C85.723152,258.568451 88.051834,261.356018 89.264366,263.619232 
	C91.291672,267.403229 95.477234,270.362366 93.568130,275.778442 
	C72.537155,275.778442 51.428036,275.778442 30.207958,275.778442 
	C28.702763,272.046387 30.058319,269.691742 33.271801,267.579346 
	C37.692486,264.673401 41.902950,261.423584 46.021019,258.095306 
	C47.330635,257.036865 48.440834,255.390976 48.996185,253.789795 
	C62.916275,213.654907 76.781807,173.500931 90.491226,133.293793 
	C91.089066,131.540421 90.576073,129.041138 89.766518,127.259125 
	C88.478638,124.424194 86.504623,121.900978 84.587746,118.919830 
M111.092941,212.453171 
	C116.179771,216.073288 121.553696,218.311203 128.075027,217.301926 
	C139.608292,215.516983 147.472305,208.193787 154.238037,199.714539 
	C167.282928,183.365860 174.481903,164.328918 177.870834,143.853317 
	C180.785889,126.240807 172.081085,115.659668 156.060455,118.183250 
	C142.054642,120.389458 130.834854,128.177856 125.526207,141.556183 
	C118.671722,158.830185 113.400963,176.726273 107.072929,194.218704 
	C104.576973,201.118240 105.795853,206.740555 111.092941,212.453171 
z"/>
<path fill="#FF0101" opacity="1.000000" stroke="none" 
	d="
M637.344604,49.210892 
	C651.551392,42.504623 665.916199,38.801098 681.486877,38.803310 
	C696.484070,38.805439 711.097717,40.520630 725.588989,44.050968 
	C731.565918,45.507053 732.148621,46.532299 730.046936,52.683735 
	C725.754639,65.246956 721.476013,77.815514 717.036499,90.326790 
	C716.534424,91.741806 715.228149,93.534126 713.957214,93.868408 
	C711.680420,94.467232 709.417908,94.290611 707.736206,91.514847 
	C703.724182,84.892517 698.893005,78.759583 694.987305,72.081215 
	C688.392822,60.805275 679.605103,58.443325 667.157898,61.621967 
	C652.620544,65.334381 641.553955,74.366951 631.877869,85.320396 
	C611.329956,108.580879 599.007385,135.942795 592.518616,166.021973 
	C589.578735,179.650421 588.915283,193.392838 593.968323,206.862320 
	C597.636292,216.639709 603.930237,223.465256 614.804504,223.985306 
	C618.580444,224.165878 623.063416,222.961716 626.198608,220.860718 
	C641.155640,210.837601 655.800415,200.344910 670.461731,189.886795 
	C674.132996,187.268066 677.471924,184.212738 683.149963,186.349136 
	C682.850647,188.143906 682.770447,190.244003 682.137085,192.161423 
	C677.762207,205.405899 673.329773,218.632401 668.741638,231.804016 
	C668.203613,233.348557 666.880798,235.105728 665.455688,235.782074 
	C645.062134,245.460648 623.215088,248.126495 601.248474,245.701492 
	C574.530396,242.751938 561.285095,226.272217 556.038391,201.091141 
	C550.920776,176.529617 556.600586,153.297913 565.835327,130.733612 
	C580.241638,95.532768 603.867188,68.265984 637.344604,49.210892 
z"/>
<path fill="#FF0101" opacity="1.000000" stroke="none" 
	d="
M833.428894,178.376328 
	C818.155334,212.007141 793.625854,234.677872 757.593506,242.516663 
	C741.362366,246.047745 724.347046,246.246078 708.600525,238.376007 
	C694.400940,231.279114 687.486511,218.810577 686.164856,203.832642 
	C681.909607,155.608765 718.754822,110.402237 760.147278,98.413979 
	C777.188110,93.478539 794.742065,92.748726 811.949951,98.056946 
	C827.988647,103.004486 836.839050,114.678108 839.975525,130.811005 
	C843.165955,147.221375 839.815979,162.850494 833.428894,178.376328 
M772.523193,114.950539 
	C769.048828,116.800613 765.301025,118.273857 762.145813,120.563690 
	C745.344788,132.756744 735.018677,149.679337 728.104614,168.823883 
	C723.624451,181.229019 720.078918,193.869156 722.972351,207.363220 
	C724.772522,215.758865 731.176514,224.340668 740.401733,225.267120 
	C748.914368,226.122009 755.950256,223.188431 762.443726,218.793045 
	C779.639771,207.153061 790.680603,190.587891 797.830322,171.458023 
	C802.529663,158.884201 807.008911,146.063538 804.005981,132.169327 
	C802.227722,123.941368 799.171814,116.706604 790.422791,113.566277 
	C784.528931,111.450806 778.848083,112.524895 772.523193,114.950539 
z"/>
<path fill="#FF0101" opacity="1.000000" stroke="none" 
	d="
M1261.692139,96.570625 
	C1273.874146,94.566475 1285.752686,93.543205 1297.411743,97.033012 
	C1313.739990,101.920341 1322.586670,113.555878 1326.014404,129.843353 
	C1328.661011,142.419418 1325.941650,154.361252 1321.999512,166.200958 
	C1321.023926,169.130753 1319.317871,170.096863 1316.143188,170.081085 
	C1288.150269,169.942001 1260.156372,170.000458 1232.162842,170.000458 
	C1230.345947,170.000458 1228.528931,170.000458 1225.783325,170.000458 
	C1223.850708,179.710464 1220.809326,189.232666 1220.273071,198.893890 
	C1219.187622,218.456070 1233.269165,229.098755 1252.666382,224.394516 
	C1263.555664,221.753632 1273.254883,216.437531 1281.681641,208.920364 
	C1285.468994,205.541840 1289.554199,205.425186 1292.050293,208.429413 
	C1297.234131,214.668716 1297.526123,219.111694 1293.045288,222.941986 
	C1275.687866,237.779129 1255.608032,245.265823 1232.765015,244.937012 
	C1226.369873,244.844971 1219.787964,244.803741 1213.635132,243.317444 
	C1197.730835,239.475571 1189.644775,227.888077 1186.043457,212.749893 
	C1181.407104,193.260620 1185.969849,174.918045 1193.950684,157.232758 
	C1204.418579,134.036880 1220.670166,115.905304 1243.096069,103.731987 
	C1248.760376,100.657242 1255.237915,99.080727 1261.692139,96.570625 
M1276.053101,112.425545 
	C1267.017578,112.770447 1259.922363,117.172859 1253.412598,123.007591 
	C1244.456299,131.035126 1237.683716,140.509933 1232.995972,152.001816 
	C1247.193726,152.001816 1260.818359,152.001816 1274.443115,152.001816 
	C1283.926514,152.001816 1284.714111,151.444534 1288.251221,142.224152 
	C1288.715576,141.013809 1289.260376,139.826355 1289.621582,138.585709 
	C1293.091919,126.666733 1287.348877,115.151161 1276.053101,112.425545 
z"/>
<path fill="#3057B9" opacity="1.000000" stroke="none" 
	d="
M333.219635,224.025330 
	C344.428619,227.607208 354.351990,224.760696 363.928009,219.749237 
	C365.970154,218.680481 367.828247,217.254898 369.750671,215.963257 
	C377.668427,210.643448 382.450317,212.395050 384.947144,221.744232 
	C385.793915,224.915070 385.280304,227.581238 381.958984,229.704132 
	C370.041718,237.321396 357.626190,244.271378 343.463226,245.593765 
	C328.885803,246.954865 313.892395,247.674515 300.815094,238.601227 
	C290.241119,231.264801 284.436157,220.808197 283.104614,208.325562 
	C279.306763,172.722504 294.266815,144.472733 318.910492,120.373405 
	C332.200653,107.376785 347.660248,97.690697 366.337036,95.456169 
	C377.281952,94.146690 388.563324,95.080482 399.651062,95.728668 
	C407.336121,96.177933 414.923920,98.109779 422.604950,98.887169 
	C426.422607,99.273552 427.920502,101.106209 426.907867,104.288155 
	C422.718658,117.451508 418.323029,130.552673 413.744568,143.585815 
	C412.760376,146.387466 407.032440,145.847061 405.063507,142.926910 
	C400.713257,136.474976 395.720764,130.333267 392.273041,123.424820 
	C387.261597,113.383057 376.552032,111.522964 366.836670,114.817383 
	C355.782776,118.565704 348.087189,126.551956 341.460693,135.616119 
	C329.724915,151.669022 323.110016,169.917572 320.142090,189.409348 
	C319.143585,195.966934 319.297760,202.867020 320.056824,209.480667 
	C320.900696,216.833328 325.954590,221.426529 333.219635,224.025330 
z"/>
<path fill="#3057B9" opacity="1.000000" stroke="none" 
	d="
M244.999756,206.927063 
	C244.575027,208.412323 244.353241,209.588837 243.793808,210.573517 
	C239.792969,217.615646 240.221008,224.038254 246.051865,229.980682 
	C247.135132,231.084702 247.847427,232.771423 248.217682,234.312515 
	C249.085205,237.923401 247.776703,240.022141 243.726807,240.013794 
	C225.235382,239.975677 206.743408,240.049835 188.253189,239.895966 
	C186.791275,239.883804 184.185410,238.513260 184.127686,237.640610 
	C184.009430,235.852615 184.732315,232.970078 186.030014,232.286224 
	C200.843201,224.480347 206.716309,211.048691 211.240250,195.871704 
	C217.393539,175.228516 225.120972,155.057693 231.878738,134.587067 
	C232.625320,132.325531 232.282883,128.899261 231.026306,126.909363 
	C221.199570,111.347816 223.670532,112.895737 237.483780,108.357552 
	C249.357391,104.456604 261.241577,100.581360 273.191589,96.925179 
	C275.389801,96.252617 277.925110,96.681923 280.304840,96.602631 
	C280.265930,98.970642 280.821167,101.539268 280.099396,103.676697 
	C268.511261,137.993439 256.760315,172.255234 244.999756,206.927063 
z"/>
<path fill="#3158B9" opacity="1.000000" stroke="none" 
	d="
M257.034821,63.259426 
	C263.445038,53.102848 272.828705,50.810188 283.560425,52.114670 
	C288.002167,52.654579 291.501068,57.369713 292.053497,61.811222 
	C294.189423,78.984047 277.736450,88.591942 262.530975,85.814835 
	C256.705322,84.750854 252.697128,77.450089 254.109955,70.918106 
	C254.655930,68.393883 255.908875,66.022575 257.034821,63.259426 
z"/>
<path fill="#FFFFFF" opacity="1.000000" stroke="none" 
	d="
M1039.501709,112.429749 
	C1039.218262,112.877808 1038.769287,113.167397 1038.320435,113.456978 
	C1038.364258,113.028786 1038.408081,112.600609 1038.715820,112.077927 
	C1038.979736,111.983421 1039.336304,112.271271 1039.501709,112.429749 
z"/>
<path fill="#FEFEFF" opacity="1.000000" stroke="none" 
	d="
M110.833015,212.192566 
	C105.795853,206.740555 104.576973,201.118240 107.072929,194.218704 
	C113.400963,176.726273 118.671722,158.830185 125.526207,141.556183 
	C130.834854,128.177856 142.054642,120.389458 156.060455,118.183250 
	C172.081085,115.659668 180.785889,126.240807 177.870834,143.853317 
	C174.481903,164.328918 167.282928,183.365860 154.238037,199.714539 
	C147.472305,208.193787 139.608292,215.516983 128.075027,217.301926 
	C121.553696,218.311203 116.179771,216.073288 110.833015,212.192566 
z"/>
<path fill="#FFFEFE" opacity="1.000000" stroke="none" 
	d="
M772.863586,114.743553 
	C778.848083,112.524895 784.528931,111.450806 790.422791,113.566277 
	C799.171814,116.706604 802.227722,123.941368 804.005981,132.169327 
	C807.008911,146.063538 802.529663,158.884201 797.830322,171.458023 
	C790.680603,190.587891 779.639771,207.153061 762.443726,218.793045 
	C755.950256,223.188431 748.914368,226.122009 740.401733,225.267120 
	C731.176514,224.340668 724.772522,215.758865 722.972351,207.363220 
	C720.078918,193.869156 723.624451,181.229019 728.104614,168.823883 
	C735.018677,149.679337 745.344788,132.756744 762.145813,120.563690 
	C765.301025,118.273857 769.048828,116.800613 772.863586,114.743553 
z"/>
<path fill="#FFFDFD" opacity="1.000000" stroke="none" 
	d="
M1276.412598,112.594238 
	C1287.348877,115.151161 1293.091919,126.666733 1289.621582,138.585709 
	C1289.260376,139.826355 1288.715576,141.013809 1288.251221,142.224152 
	C1284.714111,151.444534 1283.926514,152.001816 1274.443115,152.001816 
	C1260.818359,152.001816 1247.193726,152.001816 1232.995972,152.001816 
	C1237.683716,140.509933 1244.456299,131.035126 1253.412598,123.007591 
	C1259.922363,117.172859 1267.017578,112.770447 1276.412598,112.594238 
z"/>
</svg>